<?xml version="1.0" encoding="UTF-8" standalone="no"?>
<!-- Created with Inkscape (http://www.inkscape.org/) -->

<svg
   xmlns:dc="http://purl.org/dc/elements/1.1/"
   xmlns:cc="http://creativecommons.org/ns#"
   xmlns:rdf="http://www.w3.org/1999/02/22-rdf-syntax-ns#"
   xmlns:svg="http://www.w3.org/2000/svg"
   xmlns="http://www.w3.org/2000/svg"
   xmlns:sodipodi="http://sodipodi.sourceforge.net/DTD/sodipodi-0.dtd"
   xmlns:inkscape="http://www.inkscape.org/namespaces/inkscape"
   width="535.31757"
   height="587.5957"
   id="svg2"
   sodipodi:version="0.32"
   inkscape:version="0.48.4 r9939"
   sodipodi:docname="ftn-logo.svg"
   inkscape:output_extension="org.inkscape.output.svg.inkscape"
   version="1.1"
   inkscape:export-filename="/home/igor/Dropbox/Nauka/Doktorat/Tekst/ftn-logo.png"
   inkscape:export-xdpi="94.300003"
   inkscape:export-ydpi="94.300003">
  <defs
     id="defs4">
    <inkscape:perspective
       sodipodi:type="inkscape:persp3d"
       inkscape:vp_x="0 : 526.18109 : 1"
       inkscape:vp_y="0 : 1000 : 0"
       inkscape:vp_z="744.09448 : 526.18109 : 1"
       inkscape:persp3d-origin="372.04724 : 350.78739 : 1"
       id="perspective10" />
    <inkscape:perspective
       id="perspective2410"
       inkscape:persp3d-origin="372.04724 : 350.78739 : 1"
       inkscape:vp_z="744.09448 : 526.18109 : 1"
       inkscape:vp_y="0 : 1000 : 0"
       inkscape:vp_x="0 : 526.18109 : 1"
       sodipodi:type="inkscape:persp3d" />
  </defs>
  <sodipodi:namedview
     id="base"
     pagecolor="#ffffff"
     bordercolor="#666666"
     borderopacity="1.0"
     gridtolerance="10000"
     guidetolerance="10"
     objecttolerance="10"
     inkscape:pageopacity="0.0"
     inkscape:pageshadow="2"
     inkscape:zoom="0.49497475"
     inkscape:cx="204.47976"
     inkscape:cy="273.51078"
     inkscape:document-units="px"
     inkscape:current-layer="layer1"
     showgrid="false"
     inkscape:window-width="1280"
     inkscape:window-height="753"
     inkscape:window-x="-4"
     inkscape:window-y="-3"
     inkscape:window-maximized="1"
     fit-margin-top="0"
     fit-margin-left="0"
     fit-margin-right="0"
     fit-margin-bottom="0" />
  <metadata
     id="metadata7">
    <rdf:RDF>
      <cc:Work
         rdf:about="">
        <dc:format>image/svg+xml</dc:format>
        <dc:type
           rdf:resource="http://purl.org/dc/dcmitype/StillImage" />
        <dc:title></dc:title>
      </cc:Work>
    </rdf:RDF>
  </metadata>
  <g
     inkscape:label="Layer 1"
     inkscape:groupmode="layer"
     id="layer1"
     transform="translate(-103.20521,-144.58285)">
    <g
       id="g4156">
      <path
         inkscape:connector-curvature="0"
         d="m 370.87318,171.43121 c 147.16481,0 267.19949,120.02503 267.19949,267.19949 0,147.17446 -120.03468,267.20914 -267.19949,267.20914 -147.17446,0 -267.21783,-120.03468 -267.21783,-267.20914 0,-147.17446 120.04337,-267.19949 267.21783,-267.19949 m 0,67.7433 c 109.86208,0 199.46584,89.59411 199.46584,199.45619 0,109.86209 -89.60376,199.46584 -199.46584,199.46584 -109.87174,0 -199.47549,-89.60375 -199.47549,-199.46584 0,-109.86208 89.60375,-199.45619 199.47549,-199.45619"
         style="fill:#ffffff;fill-opacity:1;fill-rule:evenodd;stroke:none"
         id="path2418" />
      <path
         inkscape:connector-curvature="0"
         d="m 370.87318,171.43121 c 147.16481,0 267.19949,120.02503 267.19949,267.19949 0,147.17446 -120.03468,267.20914 -267.19949,267.20914 -147.17446,0 -267.21783,-120.03468 -267.21783,-267.20914 0,-147.17446 120.04337,-267.19949 267.21783,-267.19949 m 0,67.7433 c 109.86208,0 199.46584,89.59411 199.46584,199.45619 0,109.86209 -89.60376,199.46584 -199.46584,199.46584 -109.87174,0 -199.47549,-89.60375 -199.47549,-199.46584 0,-109.86208 89.60375,-199.45619 199.47549,-199.45619"
         style="fill:none;stroke:#000000;stroke-width:0.90027601;stroke-linecap:butt;stroke-linejoin:miter;stroke-miterlimit:2.41420007;stroke-opacity:1;stroke-dasharray:none"
         id="path2420" />
      <path
         inkscape:connector-curvature="0"
         d="m 370.87318,284.09221 c 85.33783,0 154.54814,69.18136 154.54814,154.53849 0,85.35714 -69.21031,154.54815 -154.54814,154.54815 -85.35714,0 -154.5578,-69.19101 -154.5578,-154.54815 0,-85.35713 69.20066,-154.53849 154.5578,-154.53849 z"
         style="fill:none;stroke:#000000;stroke-width:0.90027601;stroke-linecap:butt;stroke-linejoin:miter;stroke-miterlimit:2.41420007;stroke-opacity:1;stroke-dasharray:none"
         id="path2422" />
      <path
         inkscape:connector-curvature="0"
         d="m 446.14458,438.6307 45.22654,0 -106.82188,293.54786 -45.49678,0 75.45478,-206.99395 -56.10369,0 16.45566,-45.14933 56.05544,0 15.22993,-41.40458 0,0"
         style="fill:#000000;fill-opacity:1;fill-rule:evenodd;stroke:none"
         id="path2424" />
      <path
         inkscape:connector-curvature="0"
         d="m 264.33118,607.27957 c -56.84685,-36.00944 -92.93349,-100.1238 -92.93349,-168.64887 0,-109.86208 89.60375,-199.45619 199.47549,-199.45619 9.01442,0 17.94198,0.61769 26.71512,1.83377 l 34.93813,-95.92543 45.18794,0 -38.74079,106.2621 c 50.79541,18.67549 93.09757,57.66722 114.99664,108.59775 l -50.27424,-0.39571 C 485.21352,328.6528 456.61637,305.49905 423.57957,293.43478 l -32.50598,88.74478 193.84872,0 -15.05621,41.39493 -193.94523,0 -89.98016,248.39853 -45.14933,0 23.5398,-64.69345 M 381.68277,284.46861 c -3.59033,-0.26058 -7.20961,-0.3764 -10.80959,-0.3764 -85.13515,0 -154.5578,69.42264 -154.5578,154.53849 0,49.13537 24.36983,96.05091 63.23609,124.81213 l 102.1313,-278.97422"
         style="fill:#000000;fill-opacity:1;fill-rule:evenodd;stroke:#000000;stroke-width:1;stroke-opacity:1"
         id="path2426" />
      <path
         inkscape:connector-curvature="0"
         d="m 588.16519,465.1528 c 2.21982,0.17372 4.49756,0.44396 6.8139,0.82037 2.29704,0.3764 4.97048,0.86863 7.99137,1.46701 3.00159,0.59839 5.74259,1.24504 8.21336,1.94959 2.48041,0.72386 4.61338,1.52492 6.41819,2.44181 l 1.06166,-14.04281 -29.76497,-2.26809 -0.73351,9.63212 m 28.6261,17.35325 0.24129,-3.15602 c -2.49007,-1.30294 -5.32759,-2.43216 -8.51255,-3.3973 -3.18497,-0.98444 -6.37959,-1.7276 -9.56456,-2.28738 -3.22357,-0.56944 -6.48575,-1.07131 -9.82514,-1.56353 -3.34904,-0.47292 -6.4375,-0.82037 -9.31362,-1.0327 l 1.80482,-23.65563 37.60192,2.85682 0.22198,-2.7603 12.238,0.92653 -0.50188,6.52436 -4.37209,-0.3378 -1.66969,21.94732 4.38174,0.34745 -0.49222,6.51471 -12.238,-0.92653"
         style="fill:#003399;fill-opacity:1;fill-rule:evenodd;stroke:none"
         id="path2428" />
      <path
         inkscape:connector-curvature="0"
         d="m 600.32597,505.23513 2.30669,-8.90826 -18.55967,-0.21233 16.25298,9.12059 m -27.2942,-7.60531 2.18122,-8.31953 47.34985,-0.81071 -2.07506,7.90451 -9.68037,-0.13512 -3.36834,12.89429 8.45464,4.80641 -1.98819,7.69218 -40.87375,-24.03203"
         style="fill:#003399;fill-opacity:1;fill-rule:evenodd;stroke:none"
         id="path2432" />
      <path
         inkscape:connector-curvature="0"
         d="m 581.53466,522.0286 c -2.17157,-0.47292 -4.19836,-0.55013 -6.06109,-0.23163 -1.87237,0.30884 -3.4166,1.7276 -4.61337,4.24662 -0.91689,1.88203 -0.76247,4.15011 0.46326,6.87181 1.20643,2.68309 4.48791,5.34688 9.8348,7.91416 4.40104,2.13296 8.21335,3.09811 11.39832,2.90508 3.16567,-0.20268 5.35654,-1.56353 6.56297,-4.0729 1.19677,-2.48042 1.29329,-4.57477 0.29919,-6.30238 -1.00375,-1.73725 -2.46111,-3.34904 -4.35279,-4.85466 l 3.24288,-6.73669 c 4.61337,3.0595 7.61497,6.46645 8.97582,10.2112 1.33189,3.74475 1.15817,7.41229 -0.59839,10.99296 -2.30669,4.78711 -5.98388,7.54741 -11.11844,8.31953 -5.1249,0.76246 -11.03157,-0.46327 -17.71035,-3.67719 -7.12274,-3.42626 -11.79403,-7.46055 -14.04281,-12.06428 -2.26808,-4.63268 -2.3839,-8.99512 -0.39571,-13.10662 2.28739,-4.75815 5.55922,-7.57636 9.81549,-8.43534 4.25628,-0.85897 8.09754,-0.43431 11.5624,1.22573 l -3.26218,6.7946 0,0"
         style="fill:#003399;fill-opacity:1;fill-rule:evenodd;stroke:none"
         id="path2436" />
      <path
         inkscape:connector-curvature="0"
         d="m 528.13337,580.53549 4.55547,-5.62678 24.1575,19.52482 -15.11412,-30.70116 4.79675,-5.94527 35.49792,28.65506 -4.57478,5.64608 -24.01272,-19.409 14.98865,30.58534 -4.82571,5.94527 -35.46896,-28.67436 0,0"
         style="fill:#003399;fill-opacity:1;fill-rule:evenodd;stroke:none"
         id="path2440" />
      <path
         inkscape:connector-curvature="0"
         d="m 520.07444,612.52994 6.97797,-6.1383 c 1.08096,-0.96514 1.69865,-2.07506 1.85308,-3.33939 0.15442,-1.26434 -0.34746,-2.56728 -1.52493,-3.91848 -1.17747,-1.33189 -2.34529,-1.96889 -3.47451,-1.95924 -1.15817,0.029 -2.27773,0.52118 -3.35869,1.48632 l -7.1517,6.28308 6.67878,7.58601 m 13.07767,14.82458 7.03588,-6.22517 c 1.17747,-1.0327 1.90133,-2.26808 2.16192,-3.70614 0.24128,-1.44771 -0.52118,-3.17532 -2.30669,-5.21177 -1.51527,-1.71795 -2.97264,-2.4225 -4.32383,-2.12331 -1.37051,0.30885 -2.64449,0.96514 -3.79301,1.98819 l -6.90076,6.0804 8.12649,9.1978 m -30.39231,-23.52051 13.29,-11.71682 c 2.95333,-2.60588 5.86806,-3.59033 8.72488,-2.95333 2.86647,0.62734 5.29863,2.09436 7.30612,4.38174 1.52493,1.72761 2.52867,3.34904 2.97264,4.88362 0.45361,1.55388 0.43431,3.22357 -0.0869,5.04769 2.27773,-0.64665 4.34313,-0.52118 6.19621,0.41501 1.87237,0.90723 3.59032,2.29704 5.19246,4.10185 2.89542,3.25253 4.22732,6.57262 4.00534,9.94096 -0.21234,3.33939 -1.88203,6.40854 -5.0477,9.16885 l -12.40207,10.94471 -30.15102,-34.21428"
         style="fill:#003399;fill-opacity:1;fill-rule:evenodd;stroke:none"
         id="path2444" />
      <path
         inkscape:connector-curvature="0"
         d="m 506.13779,629.93144 c -2.41285,-3.96673 -5.11525,-6.75599 -8.11684,-8.31952 -3.00159,-1.55388 -5.81015,-1.55388 -8.42569,0.029 -2.56727,1.57318 -3.84126,4.06324 -3.84126,7.46054 0.0386,3.42626 1.25468,7.10345 3.65789,11.05088 2.4225,3.95708 5.1442,6.73668 8.12649,8.31952 2.99194,1.54422 5.81015,1.54422 8.40638,-0.0386 2.56728,-1.56353 3.85092,-4.05359 3.83162,-7.4702 -0.0193,-3.40695 -1.20643,-7.08414 -3.63859,-11.03157 m -20.81811,-15.34575 c 4.47826,-2.73135 9.25571,-2.99194 14.29375,-0.79142 5.02839,2.21983 9.36188,6.27343 12.97151,12.22835 3.63858,5.95493 5.29863,11.66856 4.95118,17.14092 -0.3378,5.4627 -2.76031,9.56455 -7.28682,12.33451 -4.77746,2.90508 -9.59351,3.25253 -14.43852,1.02305 -4.85467,-2.21983 -9.13025,-6.37959 -12.83639,-12.45998 -3.72545,-6.0997 -5.4627,-11.80368 -5.23107,-17.11196 0.24129,-5.30828 2.76031,-9.42944 7.57636,-12.36347"
         style="fill:#003399;fill-opacity:1;fill-rule:evenodd;stroke:none"
         id="path2448" />
      <path
         inkscape:connector-curvature="0"
         d="m 440.7977,638.54051 6.86215,-3.14636 7.19996,15.78972 12.8943,-5.88737 -7.21927,-15.78972 6.88147,-3.12706 18.93608,41.5011 -6.86216,3.13671 -8.45464,-18.55968 -12.90395,5.88737 8.4643,18.55002 -6.87181,3.12706 -18.92643,-41.48179 0,0"
         style="fill:#003399;fill-opacity:1;fill-rule:evenodd;stroke:none"
         id="path2452" />
      <g
         transform="matrix(3.2171391,0,0,3.2171391,-722.96618,-612.2409)"
         style="fill:#000000;stroke:#000000;stroke-width:0.31083518"
         id="g3568">
        <path
           inkscape:connector-curvature="0"
           id="path2430"
           style="fill:#000000;fill-opacity:1;stroke:#000000;stroke-width:0.27983746;stroke-linecap:butt;stroke-linejoin:miter;stroke-miterlimit:2.41420007;stroke-opacity:1;stroke-dasharray:none"
           d="m 407.54575,334.89186 c 0.69,0.054 1.398,0.138 2.118,0.255 0.714,0.117 1.545,0.27 2.484,0.456 0.933,0.186 1.785,0.387 2.553,0.606 0.771,0.225 1.434,0.474 1.995,0.759 l 0.33,-4.365 -9.252,-0.705 -0.228,2.994 m 8.898,5.394 0.075,-0.981 c -0.774,-0.405 -1.656,-0.756 -2.646,-1.056 -0.99,-0.306 -1.983,-0.537 -2.973,-0.711 -1.002,-0.177 -2.016,-0.333 -3.054,-0.486 -1.041,-0.147 -2.001,-0.255 -2.895,-0.321 l 0.561,-7.353 11.688,0.888 0.069,-0.858 3.804,0.288 -0.156,2.028 -1.359,-0.105 -0.519,6.822 1.362,0.108 -0.153,2.025 -3.804,-0.288" />
        <path
           inkscape:connector-curvature="0"
           id="path2434"
           style="fill:#000000;fill-opacity:1;stroke:#000000;stroke-width:0.27983746;stroke-linecap:butt;stroke-linejoin:miter;stroke-miterlimit:2.41420007;stroke-opacity:1;stroke-dasharray:none"
           d="m 411.32575,347.35086 0.717,-2.769 -5.769,-0.066 5.052,2.835 m -8.484,-2.364 0.678,-2.586 14.718,-0.252 -0.645,2.457 -3.009,-0.042 -1.047,4.008 2.628,1.494 -0.618,2.391 -12.705,-7.47" />
        <path
           inkscape:connector-curvature="0"
           id="path2438"
           style="fill:#000000;fill-opacity:1;stroke:#000000;stroke-width:0.27983746;stroke-linecap:butt;stroke-linejoin:miter;stroke-miterlimit:2.41420007;stroke-opacity:1;stroke-dasharray:none"
           d="m 405.48475,352.57086 c -0.675,-0.147 -1.305,-0.171 -1.884,-0.072 -0.582,0.096 -1.062,0.537 -1.434,1.32 -0.285,0.585 -0.237,1.29 0.144,2.136 0.375,0.834 1.395,1.662 3.057,2.46 1.368,0.663 2.553,0.963 3.543,0.903 0.984,-0.063 1.665,-0.486 2.04,-1.266 0.372,-0.771 0.402,-1.422 0.093,-1.959 -0.312,-0.54 -0.765,-1.041 -1.353,-1.509 l 1.008,-2.094 c 1.434,0.951 2.367,2.01 2.79,3.174 0.414,1.164 0.36,2.304 -0.186,3.417 -0.717,1.488 -1.86,2.346 -3.456,2.586 -1.593,0.237 -3.429,-0.144 -5.505,-1.143 -2.214,-1.065 -3.666,-2.319 -4.365,-3.75 -0.705,-1.44 -0.741,-2.796 -0.123,-4.074 0.711,-1.479 1.728,-2.355 3.051,-2.622 1.323,-0.267 2.517,-0.135 3.594,0.381 l -1.014,2.112 0,0 z" />
        <path
           inkscape:connector-curvature="0"
           id="path2442"
           style="fill:#000000;fill-opacity:1;stroke:#000000;stroke-width:0.27983746;stroke-linecap:butt;stroke-linejoin:miter;stroke-miterlimit:2.41420007;stroke-opacity:1;stroke-dasharray:none"
           d="m 388.88575,370.75686 1.416,-1.749 7.509,6.069 -4.698,-9.543 1.491,-1.848 11.034,8.907 -1.422,1.755 -7.464,-6.033 4.659,9.507 -1.5,1.848 -11.025,-8.913 0,0 z" />
        <path
           inkscape:connector-curvature="0"
           id="path2446"
           style="fill:#000000;fill-opacity:1;stroke:#000000;stroke-width:0.27983746;stroke-linecap:butt;stroke-linejoin:miter;stroke-miterlimit:2.41420007;stroke-opacity:1;stroke-dasharray:none"
           d="m 386.38075,380.70186 2.169,-1.908 c 0.336,-0.3 0.528,-0.645 0.576,-1.038 0.048,-0.393 -0.108,-0.798 -0.474,-1.218 -0.366,-0.414 -0.729,-0.612 -1.08,-0.609 -0.36,0.009 -0.708,0.162 -1.044,0.462 l -2.223,1.953 2.076,2.358 m 4.065,4.608 2.187,-1.935 c 0.366,-0.321 0.591,-0.705 0.672,-1.152 0.075,-0.45 -0.162,-0.987 -0.717,-1.62 -0.471,-0.534 -0.924,-0.753 -1.344,-0.66 -0.426,0.096 -0.822,0.3 -1.179,0.618 l -2.145,1.89 2.526,2.859 m -9.447,-7.311 4.131,-3.642 c 0.918,-0.81 1.824,-1.116 2.712,-0.918 0.891,0.195 1.647,0.651 2.271,1.362 0.474,0.537 0.786,1.041 0.924,1.518 0.141,0.483 0.135,1.002 -0.027,1.569 0.708,-0.201 1.35,-0.162 1.926,0.129 0.582,0.282 1.116,0.714 1.614,1.275 0.9,1.011 1.314,2.043 1.245,3.09 -0.066,1.038 -0.585,1.992 -1.569,2.85 l -3.855,3.402 -9.372,-10.635" />
        <path
           inkscape:connector-curvature="0"
           id="path2450"
           style="fill:#000000;fill-opacity:1;stroke:#000000;stroke-width:0.27983746;stroke-linecap:butt;stroke-linejoin:miter;stroke-miterlimit:2.41420007;stroke-opacity:1;stroke-dasharray:none"
           d="m 382.04875,386.11086 c -0.75,-1.233 -1.59,-2.1 -2.523,-2.586 -0.933,-0.483 -1.806,-0.483 -2.619,0.009 -0.798,0.489 -1.194,1.263 -1.194,2.319 0.012,1.065 0.39,2.208 1.137,3.435 0.753,1.23 1.599,2.094 2.526,2.586 0.93,0.48 1.806,0.48 2.613,-0.012 0.798,-0.486 1.197,-1.26 1.191,-2.322 -0.006,-1.059 -0.375,-2.202 -1.131,-3.429 m -6.471,-4.77 c 1.392,-0.849 2.877,-0.93 4.443,-0.246 1.563,0.69 2.91,1.95 4.032,3.801 1.131,1.851 1.647,3.627 1.539,5.328 -0.105,1.698 -0.858,2.973 -2.265,3.834 -1.485,0.903 -2.982,1.011 -4.488,0.318 -1.509,-0.69 -2.838,-1.983 -3.99,-3.873 -1.158,-1.896 -1.698,-3.669 -1.626,-5.319 0.075,-1.65 0.858,-2.931 2.355,-3.843" />
        <path
           inkscape:connector-curvature="0"
           id="path2454"
           style="fill:#000000;fill-opacity:1;stroke:#000000;stroke-width:0.27983746;stroke-linecap:butt;stroke-linejoin:miter;stroke-miterlimit:2.41420007;stroke-opacity:1;stroke-dasharray:none"
           d="m 361.73875,388.78686 2.133,-0.978 2.238,4.908 4.008,-1.83 -2.244,-4.908 2.139,-0.972 5.886,12.9 -2.133,0.975 -2.628,-5.769 -4.011,1.83 2.631,5.766 -2.136,0.972 -5.883,-12.894 0,0 z" />
      </g>
      <path
         inkscape:connector-curvature="0"
         d="m 570.1846,328.48873 3.7351,7.1517 15.45191,-12.46963 -19.18701,5.31793 m 27.31351,-13.77257 3.49381,6.67878 -38.53811,32.66039 -3.31043,-6.36993 8.05893,-6.48576 -5.39514,-10.33666 -9.99887,2.75065 -3.20427,-6.16725 48.89408,-12.73022"
         style="fill:#003399;fill-opacity:1;fill-rule:evenodd;stroke:none"
         id="path2456" />
      <path
         inkscape:connector-curvature="0"
         d="m 568.97817,271.88317 3.98604,5.26967 -16.13717,12.12218 23.49155,-2.35495 5.13455,6.83321 -23.93552,1.75656 -15.04656,28.39446 -5.1056,-6.79459 11.38868,-20.79881 -5.93562,0.52118 -13.2321,9.94096 -3.95708,-5.27933 39.34883,-29.61054 0,0"
         style="fill:#003399;fill-opacity:1;fill-rule:evenodd;stroke:none"
         id="path2460" />
      <path
         inkscape:connector-curvature="0"
         d="m 519.86211,277.01772 c 0.18337,0.83967 0.34745,1.50562 0.48257,1.97854 0.14477,0.47292 0.40536,0.92654 0.83002,1.34155 0.7142,0.74316 1.52492,1.04235 2.46111,0.89758 0.90723,-0.13512 1.78551,-0.61769 2.65414,-1.44771 0.68525,-0.66595 1.25469,-1.3512 1.7083,-2.05576 0.45362,-0.7142 1.0327,-1.7083 1.74691,-2.95333 l 15.46157,-27.98911 5.15386,5.28898 -14.02351,23.58806 23.38538,-13.90769 4.97048,5.1056 -33.13332,18.08675 c -4.58442,2.55763 -8.16509,4.06325 -10.75167,4.52652 -2.56728,0.46327 -4.69059,-0.15442 -6.36029,-1.88203 -0.55013,-0.56943 -0.98444,-1.20642 -1.27399,-1.90133 -0.25093,-0.83967 -0.41501,-1.41875 -0.50187,-1.69865 l 7.19031,-6.97797 0,0"
         style="fill:#003399;fill-opacity:1;fill-rule:evenodd;stroke:none"
         id="path2464" />
      <path
         inkscape:connector-curvature="0"
         d="m 504.74799,254.21142 6.4568,4.84501 8.55115,-17.92268 -15.00795,13.07767 m 18.70444,-24.21541 6.00319,4.50722 -20.62508,46.11447 -5.7426,-4.31419 4.47826,-9.33292 -9.32327,-6.99727 -7.8659,6.80425 -5.55922,-4.17907 38.63462,-32.60249"
         style="fill:#003399;fill-opacity:1;fill-rule:evenodd;stroke:none"
         id="path2468" />
      <path
         inkscape:connector-curvature="0"
         d="m 481.78727,205.21117 5.8198,3.10776 -8.79244,16.52323 10.93506,5.82945 8.81174,-16.52322 5.8198,3.10775 -23.1634,43.46999 -5.8198,-3.10776 10.35597,-19.4283 -10.96401,-5.83911 -10.34632,19.4283 -5.82946,-3.10775 23.17306,-43.46034 0,0"
         style="fill:#003399;fill-opacity:1;fill-rule:evenodd;stroke:none"
         id="path2472" />
      <g
         transform="matrix(3.2171391,0,0,3.2171391,-722.96618,-612.2409)"
         style="fill:#000000;fill-opacity:1;stroke:#000000;stroke-width:0.31083518;stroke-opacity:1"
         id="g3541">
        <path
           inkscape:connector-curvature="0"
           id="path2458"
           style="fill:#000000;fill-opacity:1;stroke:#000000;stroke-width:0.27983746;stroke-linecap:butt;stroke-linejoin:miter;stroke-miterlimit:2.41420007;stroke-opacity:1;stroke-dasharray:none"
           d="m 401.95675,292.41186 1.161,2.223 4.803,-3.876 -5.964,1.653 m 8.49,-4.281 1.086,2.076 -11.979,10.152 -1.029,-1.98 2.505,-2.016 -1.677,-3.213 -3.108,0.855 -0.996,-1.917 15.198,-3.957" />
        <path
           inkscape:connector-curvature="0"
           id="path2462"
           style="fill:#000000;fill-opacity:1;stroke:#000000;stroke-width:0.27983746;stroke-linecap:butt;stroke-linejoin:miter;stroke-miterlimit:2.41420007;stroke-opacity:1;stroke-dasharray:none"
           d="m 401.58175,274.81686 1.239,1.638 -5.016,3.768 7.302,-0.732 1.596,2.124 -7.44,0.546 -4.677,8.826 -1.587,-2.112 3.54,-6.465 -1.845,0.162 -4.113,3.09 -1.23,-1.641 12.231,-9.204 0,0 z" />
        <path
           inkscape:connector-curvature="0"
           id="path2466"
           style="fill:#000000;fill-opacity:1;stroke:#000000;stroke-width:0.27983746;stroke-linecap:butt;stroke-linejoin:miter;stroke-miterlimit:2.41420007;stroke-opacity:1;stroke-dasharray:none"
           d="m 386.31475,276.41286 c 0.057,0.261 0.108,0.468 0.15,0.615 0.045,0.147 0.126,0.288 0.258,0.417 0.222,0.231 0.474,0.324 0.765,0.279 0.282,-0.042 0.555,-0.192 0.825,-0.45 0.213,-0.207 0.39,-0.42 0.531,-0.639 0.141,-0.222 0.321,-0.531 0.543,-0.918 l 4.806,-8.7 1.602,1.644 -4.359,7.332 7.269,-4.323 1.545,1.587 -10.299,5.622 c -1.425,0.795 -2.538,1.263 -3.342,1.407 -0.798,0.144 -1.458,-0.048 -1.977,-0.585 -0.171,-0.177 -0.306,-0.375 -0.396,-0.591 -0.078,-0.261 -0.129,-0.441 -0.156,-0.528 l 2.235,-2.169 0,0 z" />
        <path
           inkscape:connector-curvature="0"
           id="path2470"
           style="fill:#000000;fill-opacity:1;stroke:#000000;stroke-width:0.27983746;stroke-linecap:butt;stroke-linejoin:miter;stroke-miterlimit:2.41420007;stroke-opacity:1;stroke-dasharray:none"
           d="m 381.61675,269.32386 2.007,1.506 2.658,-5.571 -4.665,4.065 m 5.814,-7.527 1.866,1.401 -6.411,14.334 -1.785,-1.341 1.392,-2.901 -2.898,-2.175 -2.445,2.115 -1.728,-1.299 12.009,-10.134" />
        <path
           inkscape:connector-curvature="0"
           id="path2474"
           style="fill:#000000;fill-opacity:1;stroke:#000000;stroke-width:0.27983746;stroke-linecap:butt;stroke-linejoin:miter;stroke-miterlimit:2.41420007;stroke-opacity:1;stroke-dasharray:none"
           d="m 374.47975,254.09286 1.809,0.966 -2.733,5.136 3.399,1.812 2.739,-5.136 1.809,0.966 -7.2,13.512 -1.809,-0.966 3.219,-6.039 -3.408,-1.815 -3.216,6.039 -1.812,-0.966 7.203,-13.509 0,0 z" />
      </g>
      <path
         inkscape:connector-curvature="0"
         d="m 375.15841,204.55488 -8.79244,-24.42774 7.87555,0.28954 5.0863,16.10822 6.38924,-15.69321 7.61497,0.2799 -10.549,23.30817 9.41013,25.94301 -8.08789,-0.28954 -5.36619,-17.01545 -7.01658,16.55218 -7.72113,-0.27989 11.15704,-24.77519 0,0"
         style="fill:#003399;fill-opacity:1;fill-rule:evenodd;stroke:none"
         id="path2476" />
      <path
         inkscape:connector-curvature="0"
         d="m 327.86646,183.62095 6.28308,-0.76246 3.95708,33.32635 8.55115,-34.80301 6.64983,-0.78177 5.79085,48.92304 -6.31203,0.75281 -3.89917,-33.12367 -8.59941,34.60033 -6.63053,0.78177 -5.79085,-48.91339 0,0"
         style="fill:#003399;fill-opacity:1;fill-rule:evenodd;stroke:none"
         id="path2480" />
      <path
         inkscape:connector-curvature="0"
         d="m 288.45973,193.64878 6.34098,-1.80482 5.54956,19.3897 6.19621,-22.76769 8.20371,-2.326 -6.92007,22.95107 21.1173,24.21541 -8.1844,2.33564 -15.3168,-18.08675 -1.66969,5.75224 4.55546,15.90554 -6.35063,1.79516 -13.52163,-47.3595 0,0"
         style="fill:#003399;fill-opacity:1;fill-rule:evenodd;stroke:none"
         id="path2484" />
      <path
         inkscape:connector-curvature="0"
         d="m 278.40295,229.5424 c -0.94584,0.93619 -2.07506,1.91098 -3.4166,2.93403 -1.3126,1.0134 -2.43216,1.74691 -3.32974,2.19087 -3.68684,1.84342 -6.61122,1.94959 -8.71523,0.29919 -2.12331,-1.66004 -4.03429,-4.18871 -5.75225,-7.64392 l -8.09754,-16.20473 5.65574,-2.81821 7.00692,13.9849 c 1.38016,2.78926 2.6638,4.47826 3.83162,5.05734 1.19677,0.59839 2.73135,0.40536 4.65198,-0.55013 0.76246,-0.3764 1.63109,-0.92653 2.59623,-1.68899 0.97479,-0.73351 1.73726,-1.45737 2.25843,-2.19088 l -9.90235,-19.82401 5.90667,-2.94368 22.00523,44.07802 -5.90667,2.94369 -8.79244,-17.62349 0,0"
         style="fill:#003399;fill-opacity:1;fill-rule:evenodd;stroke:none"
         id="path2488" />
      <path
         inkscape:connector-curvature="0"
         d="m 217.61832,230.56545 5.26968,-3.52277 18.67549,27.86364 -8.22301,-34.88022 5.54957,-3.72545 27.43898,40.92201 -5.26003,3.52277 -18.56932,-27.69957 8.10719,34.7065 -5.55922,3.72545 -27.42933,-40.91236 0,0"
         style="fill:#003399;fill-opacity:1;fill-rule:evenodd;stroke:none"
         id="path2492" />
      <path
         inkscape:connector-curvature="0"
         d="m 186.8496,256.59532 4.84502,-4.46861 12.68196,13.76293 9.13989,-8.39674 -12.71092,-13.77257 4.85467,-4.47826 33.40355,36.23142 -4.87396,4.46861 -14.92109,-16.20473 -9.11094,8.42569 14.93074,16.17577 -4.84501,4.48791 -33.39391,-36.23142 0,0"
         style="fill:#003399;fill-opacity:1;fill-rule:evenodd;stroke:none"
         id="path2496" />
      <path
         inkscape:connector-curvature="0"
         d="m 187.5059,292.1994 -24.64972,-8.17475 5.09595,-5.99353 15.81867,5.94527 -8.39673,-14.71841 4.90292,-5.8198 11.83264,22.69048 26.21325,8.62836 -5.23107,6.17691 -16.6873,-6.28307 8.69592,15.72216 -4.98013,5.91632 -12.6144,-24.08994 0,0"
         style="fill:#003399;fill-opacity:1;fill-rule:evenodd;stroke:none"
         id="path2500" />
      <path
         inkscape:connector-curvature="0"
         d="m 143.03217,315.35315 11.95811,-19.85297 7.29647,4.3914 -8.70558,14.43852 9.34257,5.61712 8.00103,-13.25139 7.27716,4.39139 -7.97207,13.2514 10.61656,6.42784 9.09164,-15.07551 7.64392,4.60372 -12.37312,20.49962 -42.17669,-25.44114 0,0"
         style="fill:#003399;fill-opacity:1;fill-rule:evenodd;stroke:none"
         id="path2504" />
      <path
         inkscape:connector-curvature="0"
         d="m 128.34175,347.77226 10.27297,-23.74249 7.8244,3.38765 -3.83161,8.83105 37.38959,16.20473 -2.62519,6.06109 -37.39924,-16.19508 -3.83065,8.83105 -7.80027,-3.378 0,0"
         style="fill:#003399;fill-opacity:1;fill-rule:evenodd;stroke:none"
         id="path2508" />
      <g
         transform="matrix(3.2171391,0,0,3.2171391,-722.96618,-612.2409)"
         style="fill:#000000;fill-opacity:1;stroke:#000000;stroke-width:0.31083518;stroke-opacity:1"
         id="g3530">
        <path
           inkscape:connector-curvature="0"
           id="path2478"
           style="fill:#000000;fill-opacity:1;stroke:#000000;stroke-width:0.27983746;stroke-linecap:butt;stroke-linejoin:miter;stroke-miterlimit:2.41420007;stroke-opacity:1;stroke-dasharray:none"
           d="m 341.33575,253.88886 -2.733,-7.593 2.448,0.09 1.581,5.007 1.986,-4.878 2.367,0.087 -3.279,7.245 2.925,8.064 -2.514,-0.09 -1.668,-5.289 -2.181,5.145 -2.4,-0.087 3.468,-7.701 0,0 z" />
        <path
           inkscape:connector-curvature="0"
           id="path2482"
           style="fill:#000000;fill-opacity:1;stroke:#000000;stroke-width:0.27983746;stroke-linecap:butt;stroke-linejoin:miter;stroke-miterlimit:2.41420007;stroke-opacity:1;stroke-dasharray:none"
           d="m 326.63575,247.38186 1.953,-0.237 1.23,10.359 2.658,-10.818 2.067,-0.243 1.8,15.207 -1.962,0.234 -1.212,-10.296 -2.673,10.755 -2.061,0.243 -1.8,-15.204 0,0 z" />
        <path
           inkscape:connector-curvature="0"
           id="path2486"
           style="fill:#000000;fill-opacity:1;stroke:#000000;stroke-width:0.27983746;stroke-linecap:butt;stroke-linejoin:miter;stroke-miterlimit:2.41420007;stroke-opacity:1;stroke-dasharray:none"
           d="m 314.38675,250.49886 1.971,-0.561 1.725,6.027 1.926,-7.077 2.55,-0.723 -2.151,7.134 6.564,7.527 -2.544,0.726 -4.761,-5.622 -0.519,1.788 1.416,4.944 -1.974,0.558 -4.203,-14.721 0,0 z" />
        <path
           inkscape:connector-curvature="0"
           id="path2490"
           style="fill:#000000;fill-opacity:1;stroke:#000000;stroke-width:0.27983746;stroke-linecap:butt;stroke-linejoin:miter;stroke-miterlimit:2.41420007;stroke-opacity:1;stroke-dasharray:none"
           d="m 311.26075,261.65586 c -0.294,0.291 -0.645,0.594 -1.062,0.912 -0.408,0.315 -0.756,0.543 -1.035,0.681 -1.146,0.573 -2.055,0.606 -2.709,0.093 -0.66,-0.516 -1.254,-1.302 -1.788,-2.376 l -2.517,-5.037 1.758,-0.876 2.178,4.347 c 0.429,0.867 0.828,1.392 1.191,1.572 0.372,0.186 0.849,0.126 1.446,-0.171 0.237,-0.117 0.507,-0.288 0.807,-0.525 0.303,-0.228 0.54,-0.453 0.702,-0.681 l -3.078,-6.162 1.836,-0.915 6.84,13.701 -1.836,0.915 -2.733,-5.478 0,0 z" />
        <path
           inkscape:connector-curvature="0"
           id="path2494"
           style="fill:#000000;fill-opacity:1;stroke:#000000;stroke-width:0.27983746;stroke-linecap:butt;stroke-linejoin:miter;stroke-miterlimit:2.41420007;stroke-opacity:1;stroke-dasharray:none"
           d="m 292.36675,261.97386 1.638,-1.095 5.805,8.661 -2.556,-10.842 1.725,-1.158 8.529,12.72 -1.635,1.095 -5.772,-8.61 2.52,10.788 -1.728,1.158 -8.526,-12.717 0,0 z" />
        <path
           inkscape:connector-curvature="0"
           id="path2498"
           style="fill:#000000;fill-opacity:1;stroke:#000000;stroke-width:0.27983746;stroke-linecap:butt;stroke-linejoin:miter;stroke-miterlimit:2.41420007;stroke-opacity:1;stroke-dasharray:none"
           d="m 282.80275,270.06486 1.506,-1.389 3.942,4.278 2.841,-2.61 -3.951,-4.281 1.509,-1.392 10.383,11.262 -1.515,1.389 -4.638,-5.037 -2.832,2.619 4.641,5.028 -1.506,1.395 -10.38,-11.262 0,0 z" />
        <path
           inkscape:connector-curvature="0"
           id="path2502"
           style="fill:#000000;fill-opacity:1;stroke:#000000;stroke-width:0.27983746;stroke-linecap:butt;stroke-linejoin:miter;stroke-miterlimit:2.41420007;stroke-opacity:1;stroke-dasharray:none"
           d="m 283.00675,281.13186 -7.662,-2.541 1.584,-1.863 4.917,1.848 -2.61,-4.575 1.524,-1.809 3.678,7.053 8.148,2.682 -1.626,1.92 -5.187,-1.953 2.703,4.887 -1.548,1.839 -3.921,-7.488 0,0 z" />
        <path
           inkscape:connector-curvature="0"
           id="path2506"
           style="fill:#000000;fill-opacity:1;stroke:#000000;stroke-width:0.27983746;stroke-linecap:butt;stroke-linejoin:miter;stroke-miterlimit:2.41420007;stroke-opacity:1;stroke-dasharray:none"
           d="m 269.18275,288.32886 3.717,-6.171 2.268,1.365 -2.706,4.488 2.904,1.746 2.487,-4.119 2.262,1.365 -2.478,4.119 3.3,1.998 2.826,-4.686 2.376,1.431 -3.846,6.372 -13.11,-7.908 0,0 z" />
        <path
           inkscape:connector-curvature="0"
           id="path2510"
           style="fill:#000000;fill-opacity:1;stroke:#000000;stroke-width:0.27983746;stroke-linecap:butt;stroke-linejoin:miter;stroke-miterlimit:2.41420007;stroke-opacity:1;stroke-dasharray:none"
           d="m 264.61645,298.40586 3.1932,-7.38 2.4321,1.053 -1.191,2.745 11.622,5.037 -0.816,1.884 -11.625,-5.034 -1.1907,2.745 -2.4246,-1.05 0,0 z" />
      </g>
      <path
         inkscape:connector-curvature="0"
         d="m 112.40147,424.35626 2.02872,-25.77894 8.47878,0.66595 -0.74992,9.60316 40.61992,3.21392 -0.52118,6.59192 -40.61509,-3.22357 -0.77308,9.60316 -8.46815,-0.6756 0,0"
         style="fill:#000000;fill-opacity:1;fill-rule:evenodd;stroke:#000000;stroke-width:1"
         id="path2512" />
      <path
         inkscape:connector-curvature="0"
         d="m 112.40147,424.35626 2.02872,-25.77894 8.47878,0.66595 -0.74992,9.60316 40.61992,3.21392 -0.52118,6.59192 -40.61509,-3.22357 -0.77308,9.60316 -8.46815,-0.6756 0,0 z"
         style="fill:#000000;fill-opacity:1;stroke:#000000;stroke-width:0.90027601;stroke-linecap:butt;stroke-linejoin:miter;stroke-miterlimit:2.41420007;stroke-opacity:1;stroke-dasharray:none"
         id="path2514" />
      <path
         inkscape:connector-curvature="0"
         d="m 112.62828,457.06491 -0.65244,-23.17305 8.50483,-0.24129 0.48257,16.85138 10.89259,-0.32815 -0.44107,-15.47122 8.49035,-0.25094 0.45362,15.49052 12.43102,-0.36675 -0.52117,-17.57523 8.91791,-0.26059 0.6756,23.92586 -49.23381,1.39946 0,0"
         style="fill:#000000;fill-opacity:1;fill-rule:evenodd;stroke:#000000;stroke-width:1"
         id="path2516" />
      <path
         inkscape:connector-curvature="0"
         d="m 112.62828,457.06491 -0.65244,-23.17305 8.50483,-0.24129 0.48257,16.85138 10.89259,-0.32815 -0.44107,-15.47122 8.49035,-0.25094 0.45362,15.49052 12.43102,-0.36675 -0.52117,-17.57523 8.91791,-0.26059 0.6756,23.92586 -49.23381,1.39946 0,0 z"
         style="fill:#000000;fill-opacity:1;stroke:#000000;stroke-width:0.90027601;stroke-linecap:butt;stroke-linejoin:miter;stroke-miterlimit:2.41420007;stroke-opacity:1;stroke-dasharray:none"
         id="path2518" />
      <path
         inkscape:connector-curvature="0"
         d="m 118.30234,494.00088 -4.22249,-25.528 8.39577,-1.38015 1.57993,9.497 40.18078,-6.64983 1.09061,6.50506 -40.20877,6.66912 1.58766,9.50665 -8.40349,1.38015 0,0"
         style="fill:#000000;fill-opacity:1;fill-rule:evenodd;stroke:#000000;stroke-width:1"
         id="path2520" />
      <path
         inkscape:connector-curvature="0"
         d="m 118.30234,494.00088 -4.22249,-25.528 8.39577,-1.38015 1.57993,9.497 40.18078,-6.64983 1.09061,6.50506 -40.20877,6.66912 1.58766,9.50665 -8.40349,1.38015 0,0 z"
         style="fill:#000000;fill-opacity:1;stroke:#000000;stroke-width:0.90027601;stroke-linecap:butt;stroke-linejoin:miter;stroke-miterlimit:2.41420007;stroke-opacity:1;stroke-dasharray:none"
         id="path2522" />
      <path
         inkscape:connector-curvature="0"
         d="m 131.4553,508.94128 2.46979,8.13614 13.07381,-3.70614 c 6.67878,-2.05575 11.94846,-3.46486 15.80902,-4.28523 3.83162,-0.82037 6.91042,-0.97479 9.1978,-0.48257 2.31634,0.49222 3.81231,1.90133 4.52652,4.22732 0.18338,0.64664 0.27024,1.28364 0.27024,1.90133 0,0.61769 -0.0869,1.41876 -0.26059,2.4225 l -8.2037,2.49972 c 0.21233,-0.42466 0.3764,-0.91688 0.49222,-1.45736 0.12547,-0.55013 0.12547,-1.05201 -0.0193,-1.49597 -0.2799,-0.92654 -1.10027,-1.41876 -2.43216,-1.48632 -1.34155,-0.0869 -3.52277,0.34745 -6.53401,1.27399 -4.02464,1.22573 -7.85625,2.33564 -11.47554,3.31043 -3.60963,0.97479 -7.37368,1.98819 -11.27382,3.0209 -3.8789,1.02305 -7.05711,1.91098 -9.51147,2.65414 l -6.19428,-20.3645 47.11243,-14.342 1.93994,6.31203 -38.9869,11.86159 0,0"
         style="fill:#000000;fill-opacity:1;fill-rule:evenodd;stroke:#000000;stroke-width:1"
         id="path2524" />
      <path
         inkscape:connector-curvature="0"
         d="m 131.4553,508.94128 2.46979,8.13614 13.07381,-3.70614 c 6.67878,-2.05575 11.94846,-3.46486 15.80902,-4.28523 3.83162,-0.82037 6.91042,-0.97479 9.1978,-0.48257 2.31634,0.49222 3.81231,1.90133 4.52652,4.22732 0.18338,0.64664 0.27024,1.28364 0.27024,1.90133 0,0.61769 -0.0869,1.41876 -0.26059,2.4225 l -8.2037,2.49972 c 0.21233,-0.42466 0.3764,-0.91688 0.49222,-1.45736 0.12547,-0.55013 0.12547,-1.05201 -0.0193,-1.49597 -0.2799,-0.92654 -1.10027,-1.41876 -2.43216,-1.48632 -1.34155,-0.0869 -3.52277,0.34745 -6.53401,1.27399 -4.02464,1.22573 -7.85625,2.33564 -11.47554,3.31043 -3.60963,0.97479 -7.37368,1.98819 -11.27382,3.0209 -3.8789,1.02305 -7.05711,1.91098 -9.51147,2.65414 l -6.19428,-20.3645 47.11243,-14.342 1.93994,6.31203 -38.9869,11.86159 0,0 z"
         style="fill:#000000;fill-opacity:1;stroke:#000000;stroke-width:0.90027601;stroke-linecap:butt;stroke-linejoin:miter;stroke-miterlimit:2.41420007;stroke-opacity:1;stroke-dasharray:none"
         id="path2526" />
      <path
         inkscape:connector-curvature="0"
         d="m 177.87379,543.39684 c 0.0676,-0.85898 0.13512,-1.53458 0.13512,-2.0268 0.0193,-0.49222 -0.10617,-0.9941 -0.35711,-1.54423 -0.47292,-0.91688 -1.15817,-1.44771 -2.05575,-1.60213 -0.91688,-0.14477 -1.92063,0.0386 -3.00159,0.56943 -0.83967,0.43431 -1.60213,0.89758 -2.26808,1.42841 -0.637,0.53083 -1.49597,1.28364 -2.55763,2.26808 l -23.31782,21.88942 -3.28148,-6.63053 20.58647,-18.13501 -26.53754,6.05144 -3.12899,-6.39889 37.07882,-7.01658 c 5.15385,-1.0134 9.03372,-1.3512 11.61065,-1.00375 2.59623,0.34745 4.43,1.60214 5.48201,3.7544 0.36675,0.70456 0.56943,1.43807 0.61769,2.21018 -0.01,0.87828 -0.01,1.45736 -0.029,1.75656 l -8.97581,4.43 0,0"
         style="fill:#000000;fill-opacity:1;fill-rule:evenodd;stroke:#000000;stroke-width:1"
         id="path2528" />
      <path
         inkscape:connector-curvature="0"
         d="m 177.87379,543.39684 c 0.0676,-0.85898 0.13512,-1.53458 0.13512,-2.0268 0.0193,-0.49222 -0.10617,-0.9941 -0.35711,-1.54423 -0.47292,-0.91688 -1.15817,-1.44771 -2.05575,-1.60213 -0.91688,-0.14477 -1.92063,0.0386 -3.00159,0.56943 -0.83967,0.43431 -1.60213,0.89758 -2.26808,1.42841 -0.637,0.53083 -1.49597,1.28364 -2.55763,2.26808 l -23.31782,21.88942 -3.28148,-6.63053 20.58647,-18.13501 -26.53754,6.05144 -3.12899,-6.39889 37.07882,-7.01658 c 5.15385,-1.0134 9.03372,-1.3512 11.61065,-1.00375 2.59623,0.34745 4.43,1.60214 5.48201,3.7544 0.36675,0.70456 0.56943,1.43807 0.61769,2.21018 -0.01,0.87828 -0.01,1.45736 -0.029,1.75656 l -8.97581,4.43 0,0 z"
         style="fill:#000000;fill-opacity:1;stroke:#000000;stroke-width:0.90027601;stroke-linecap:butt;stroke-linejoin:miter;stroke-miterlimit:2.41420007;stroke-opacity:1;stroke-dasharray:none"
         id="path2530" />
      <path
         inkscape:connector-curvature="0"
         d="m 165.07601,595.09948 -3.7544,-5.43375 16.61974,-11.42728 -23.53016,1.34155 -4.83536,-7.01658 23.96447,-0.74316 16.23368,-27.71887 4.81606,7.00693 -12.2766,20.28728 5.98388,-0.25094 13.6278,-9.38118 3.7351,5.45306 -40.58421,27.88294 0,0"
         style="fill:#000000;fill-opacity:1;fill-rule:evenodd;stroke:#000000;stroke-width:1"
         id="path2532" />
      <path
         inkscape:connector-curvature="0"
         d="m 165.07601,595.09948 -3.7544,-5.43375 16.61974,-11.42728 -23.53016,1.34155 -4.83536,-7.01658 23.96447,-0.74316 16.23368,-27.71887 4.81606,7.00693 -12.2766,20.28728 5.98388,-0.25094 13.6278,-9.38118 3.7351,5.45306 -40.58421,27.88294 0,0 z"
         style="fill:#000000;fill-opacity:1;stroke:#000000;stroke-width:0.90027601;stroke-linecap:butt;stroke-linejoin:miter;stroke-miterlimit:2.41420007;stroke-opacity:1;stroke-dasharray:none"
         id="path2534" />
      <path
         inkscape:connector-curvature="0"
         d="m 209.2988,599.51018 -5.49166,-5.87772 -11.61065,16.12752 17.10231,-10.2498 m -22.69048,20.55752 -5.1249,-5.50131 28.47168,-41.74238 4.88361,5.26002 -6.06109,8.39673 7.94312,8.54151 8.93721,-5.29863 4.7292,5.07665 -43.77883,25.26741"
         style="fill:#000000;fill-opacity:1;fill-rule:evenodd;stroke:#000000;stroke-width:1"
         id="path2536" />
      <path
         inkscape:connector-curvature="0"
         d="m 209.2988,599.51018 -5.49166,-5.87772 -11.61065,16.12752 17.10231,-10.2498 m -22.69048,20.55752 -5.1249,-5.50131 28.47168,-41.74238 4.88361,5.26002 -6.06109,8.39673 7.94312,8.54151 8.93721,-5.29863 4.7292,5.07665 -43.77883,25.26741"
         style="fill:#000000;fill-opacity:1;stroke:#000000;stroke-width:0.90027601;stroke-linecap:butt;stroke-linejoin:miter;stroke-miterlimit:2.41420007;stroke-opacity:1;stroke-dasharray:none"
         id="path2538" />
      <path
         inkscape:connector-curvature="0"
         d="m 234.18981,612.96425 c -1.54423,-1.23538 -3.57103,-1.51527 -6.03214,-0.82037 -2.46111,0.68525 -5.01874,2.67345 -7.62462,5.98388 -1.94959,2.48042 -3.21392,4.98978 -3.7737,7.53776 -0.55979,2.54797 0.23163,4.66163 2.37425,6.36028 l 15.05621,-19.06155 m -10.08573,22.98003 c 2.13296,1.7083 4.39139,1.97854 6.74634,0.83967 2.34529,-1.12921 4.50721,-2.94368 6.48575,-5.40479 2.57693,-3.27183 3.90882,-6.19621 3.99569,-8.77314 0.11581,-2.57693 -0.62735,-4.47826 -2.16192,-5.70399 l -15.06586,19.04225 m 19.49586,-24.63042 c 3.24287,2.55763 4.72919,6.06109 4.4686,10.52005 -0.27024,4.4686 -2.14261,8.85035 -5.56886,13.19348 -3.01125,3.79301 -6.59192,6.59192 -10.77098,8.41604 -4.17907,1.79516 -8.17476,1.16782 -12.05463,-1.90133 l -3.32008,4.20802 -4.96083,-3.93778 3.31043,-4.19837 c -3.87021,-3.04985 -5.40479,-6.8332 -4.61337,-11.29216 0.80107,-4.4879 2.70239,-8.62836 5.71364,-12.42137 3.4166,-4.30453 7.24821,-7.11309 11.51414,-8.42569 4.27558,-1.31259 8.05893,-0.6756 11.31146,1.91098 l 3.32009,-4.20801 4.96082,3.92812 -3.31043,4.20802"
         style="fill:#000000;fill-opacity:1;fill-rule:evenodd;stroke:#000000;stroke-width:1"
         id="path2540" />
      <path
         inkscape:connector-curvature="0"
         d="m 234.18981,612.96425 c -1.54423,-1.23538 -3.57103,-1.51527 -6.03214,-0.82037 -2.46111,0.68525 -5.01874,2.67345 -7.62462,5.98388 -1.94959,2.48042 -3.21392,4.98978 -3.7737,7.53776 -0.55979,2.54797 0.23163,4.66163 2.37425,6.36028 l 15.05621,-19.06155 m -10.08573,22.98003 c 2.13296,1.7083 4.39139,1.97854 6.74634,0.83967 2.34529,-1.12921 4.50721,-2.94368 6.48575,-5.40479 2.57693,-3.27183 3.90882,-6.19621 3.99569,-8.77314 0.11581,-2.57693 -0.62735,-4.47826 -2.16192,-5.70399 l -15.06586,19.04225 m 19.49586,-24.63042 c 3.24287,2.55763 4.72919,6.06109 4.4686,10.52005 -0.27024,4.4686 -2.14261,8.85035 -5.56886,13.19348 -3.01125,3.79301 -6.59192,6.59192 -10.77098,8.41604 -4.17907,1.79516 -8.17476,1.16782 -12.05463,-1.90133 l -3.32008,4.20802 -4.96083,-3.93778 3.31043,-4.19837 c -3.87021,-3.04985 -5.40479,-6.8332 -4.61337,-11.29216 0.80107,-4.4879 2.70239,-8.62836 5.71364,-12.42137 3.4166,-4.30453 7.24821,-7.11309 11.51414,-8.42569 4.27558,-1.31259 8.05893,-0.6756 11.31146,1.91098 l 3.32009,-4.20801 4.96082,3.92812 -3.31043,4.20802"
         style="fill:#000000;fill-opacity:1;stroke:#000000;stroke-width:0.90027601;stroke-linecap:butt;stroke-linejoin:miter;stroke-miterlimit:2.41420007;stroke-opacity:1;stroke-dasharray:none"
         id="path2542" />
    </g>
  </g>
</svg>
